<svg width="116" height="117" viewBox="0 0 116 117" fill="none" xmlns="http://www.w3.org/2000/svg">
<path fill-rule="evenodd" clip-rule="evenodd" d="M57.6851 84.575C57.6851 84.575 39.9312 76.9667 36.2575 80.0669C32.5838 83.1671 33.4385 88.5139 42.7353 94.1452C52.0321 99.7766 59.1546 108.718 65.2875 111.593C74.3444 115.847 86.4752 114.02 94.6024 109.347C103.359 104.3 120.259 85.1291 109.537 63.4574C98.8309 41.7858 93.4328 40.8422 88.6794 43.4632C85.8904 45.0058 85.5755 49.0945 85.5755 49.0945C85.5755 49.0945 80.1474 42.969 75.9938 43.7478C69.9359 44.871 69.2311 47.6867 70.0708 50.2178C70.9106 52.7489 65.2125 41.5012 58.2549 46.6982C54.2513 49.6936 55.9757 54.7109 55.9757 54.7109C55.9757 54.7109 44.2198 35.4955 37.9369 32.7547C34.0233 31.0473 29.06 34.7616 29.8997 38.9851C30.7394 43.2086 57.6701 84.545 57.6701 84.545L57.6851 84.575Z" stroke="currentColor" stroke-width="4" stroke-linecap="round" stroke-linejoin="round"/>
<path d="M28.85 61.0012C12.8656 59.189 1.37951 44.7812 3.17889 28.8307C4.97827 12.8803 19.4183 1.37798 35.3878 3.17521C51.3723 4.97245 62.8583 19.3803 61.0589 35.3457" stroke="currentColor" stroke-width="4" stroke-linecap="round" stroke-linejoin="round"/>
<path d="M29.8697 51.9402C18.8785 50.6971 10.9762 40.7973 12.2208 29.8192C13.4654 18.8411 23.3769 10.9482 34.3681 12.1913C45.3594 13.4344 53.2616 23.3342 52.0171 34.3123" stroke="currentColor" stroke-width="4" stroke-linecap="round" stroke-linejoin="round"/>
<path d="M55.9907 54.7258L61.059 62.3042" stroke="currentColor" stroke-width="4" stroke-linecap="round" stroke-linejoin="round"/>
<path d="M70.0858 50.2327L74.1194 56.7177" stroke="currentColor" stroke-width="4" stroke-linecap="round" stroke-linejoin="round"/>
<path d="M85.5905 49.1094L87.4799 52.614" stroke="currentColor" stroke-width="4" stroke-linecap="round" stroke-linejoin="round"/>
</svg>
